Coordinates
version=1
nRows=12
nColumns=33
inDegrees=yes

Units are S.I. units (second, meters, Newtons, ...)
Angles are in degrees.

endheader
time	ground_thorax_rot_x	ground_thorax_rot_y	ground_thorax_rot_z	ground_thorax_tx	ground_thorax_ty	ground_thorax_tz	clav_prot_r	clav_elev_r	scapula_abduction_r	scapula_elevation_r	scapula_upward_rot_r	scapula_winging_r	shoulder_elv_r	plane_of_elev_r	axial_rot_r	elbow_flexion_r	pro_sup_r	wrist_flex_r	wrist_dev_r	clav_prot_l	clav_elev_l	scapula_abduction_l	scapula_elevation_l	scapula_upward_rot_l	scapula_winging_l	shoulder_elv_l	plane_of_elev_l	axial_rot_l	elbow_flexion_l	pro_sup_l	wrist_flex_l	wrist_dev_l
      9.11000000	     41.11959494	     17.50840263	     17.12664328	   -150.16675751	    795.31170088	      6.76473238	     14.91949729	     42.15834719	     41.55332878	     45.00000000	    -25.30596215	   2790.84228056	  -3539.00466269	     31.75375349	     53.60436353	   1450.75443363	     14.43545285	     17.68349056	     11.84970602	      5.81165822	    -45.00000000	    -35.45252390	     45.00000000	    -43.23633952	  -1349.88489315	  -2088.43305337	     22.94662079	    -45.16859608	    370.39305266	      9.79418905	      9.02707184	    -18.89016039
      9.12000000	     40.98608360	     17.80115034	     17.56242300	   -146.55668904	    793.20347275	      6.70028641	     14.90633874	     42.11934963	     41.40669748	     45.00000000	    -25.43249112	   2791.10696782	  -3539.22144210	     31.72340488	     53.76803908	   1450.68288198	     15.39434268	     17.66123907	     11.87560643	      5.85869853	    -45.00000000	    -35.32437731	     45.00000000	    -43.60641298	  -1350.24737854	  -2088.64097929	     23.00211735	    -45.08461518	    370.26702362	     10.50314116	      9.13944824	    -18.80614736
      9.13000000	     40.99176807	     17.70090343	     17.67128354	   -142.96697383	    791.10855320	      6.63247675	     15.52053738	     42.41187220	     41.76461303	     45.00000000	    -25.07008655	   2791.28208273	  -3539.51882138	     31.29424281	     54.09837322	   1450.65398777	     16.61548970	     17.70744416	     11.91939409	      5.24440468	    -45.00000000	    -35.16569556	     45.00000000	    -43.53523264	  -1350.77822802	  -2088.89155933	     22.85345908	    -44.70954345	    370.14539957	     11.45904422	      9.23058970	    -18.75427206
      9.14000000	     40.86458827	     17.90508369	     18.06400969	   -139.40475104	    789.03725451	      6.56566417	     15.52498099	     42.40427416	     41.67376143	     45.00000000	    -25.19445353	   2791.44685655	  -3539.80739341	     31.34813994	     54.28208721	   1450.57786413	     17.64144797	     17.69669342	     11.92281992	      5.29476159	    -45.00000000	    -35.03362644	     45.00000000	    -43.90534489	  -1351.13663992	  -2089.11347940	     22.89562402	    -44.75568524	    370.07986903	     12.46646779	      9.26732315	    -18.71804592
      9.15000000	     40.61216357	     18.11873600	     18.43582804	   -135.88222686	    787.00525755	      6.50445915	     15.46549549	     42.19031412	     41.59653387	     44.76807324	    -25.19813443	   2791.55538930	  -3540.01922869	     31.27209069	     54.57942453	   1450.41443699	     18.56271244	     17.66519135	     11.95942252	      5.32664490	    -45.00000000	    -35.01263967	     45.00000000	    -44.10675977	  -1351.46452490	  -2089.30797412	     22.95537218	    -44.73136365	    369.91719878	     13.45461327	      9.31293845	    -18.65712475
      9.16000000	     40.25632821	     18.38366292	     19.06282501	   -132.40522252	    785.02816012	      6.45500782	     14.92171087	     42.04904016	     41.61882218	     44.39750505	    -25.44100595	   2791.58085450	  -3540.07951556	     31.19546002	     54.80657947	   1450.41762103	     19.24908364	     17.64342212	     11.80791435	      5.82793261	    -45.00000000	    -34.87156491	     45.00000000	    -44.46385834	  -1351.50322615	  -2089.52865976	     23.11710776	    -44.89890986	    369.74971412	     14.36343889	      9.41191498	    -18.59243591
      9.17000000	     40.21808560	     17.34651843	     18.09242925	   -128.98131179	    783.11889781	      6.41619772	     15.82823962	     41.90344171	     42.56489070	     43.62628503	    -23.40795344	   2791.00502580	  -3540.47885146	     30.46812988	     56.14335281	   1450.30673550	     20.53450802	     17.71188117	     12.05703187	      4.64646066	    -45.00000000	    -35.25417111	     45.00000000	    -42.78640217	  -1352.07580003	  -2089.77027006	     22.89296415	    -44.33669422	    369.62706324	     15.75968737	      9.32594659	    -18.58603272
      9.18000000	     39.89446326	     16.10615971	     16.69469965	   -125.61708467	    781.29330738	      6.38882674	     14.48104536	     41.38601097	     43.52158719	     42.09693852	    -20.09175616	   2789.41850882	  -3540.95967537	     29.86921010	     58.57666357	   1450.26483635	     22.56134455	     17.74974867	     11.71518089	      5.01102361	    -45.00000000	    -36.66051446	     45.00000000	    -39.96101261	  -1351.89404227	  -2090.30728142	     22.97875186	    -43.84138962	    369.61618733	     18.38746961	      9.35545678	    -18.72291097
      9.19000000	     39.60132188	     16.65802352	     17.71070275	   -122.32595054	    779.56264701	      6.36612892	     15.20603168	     41.25340376	     43.23263006	     42.24319919	    -21.41842190	   2790.00423841	  -3541.09494156	     30.09983433	     58.31335771	   1450.16171634	     22.85374353	     17.74532864	     11.87794187	      4.84064065	    -45.00000000	    -36.15532129	     45.00000000	    -41.11280027	  -1352.33721750	  -2090.22913531	     22.86479517	    -44.37847230	    369.38704064	     19.04756842	      9.18533697	    -18.63178220
      9.20000000	     39.24964734	     14.77570646	     15.64045818	   -119.11007871	    777.92850599	      6.34480419	     14.15116420	     40.84919823	     44.64602389	     40.66109680	    -17.38723557	   2788.38926299	  -3541.53092455	     29.11003419	     60.56055782	   1450.36850953	     24.48729994	     17.78125661	     11.49434366	      4.59088307	    -45.00000000	    -37.75008200	     45.00000000	    -37.40524097	  -1352.11162352	  -2090.70435073	     23.06645955	    -43.57721591	    369.15501779	     20.76573822	      9.44583885	    -18.65433961
      9.21000000	     39.06675288	     15.41314475	     16.74851423	   -115.98058597	    776.39708484	      6.32015350	     14.89609818	     40.71125540	     44.34342171	     40.75341297	    -18.84380105	   2788.86955881	  -3541.54630254	     29.50093068	     60.41073415	   1450.13297792	     24.80390087	     17.77983569	     11.67130764	      4.68077221	    -45.00000000	    -37.16928278	     45.00000000	    -38.66796079	  -1352.56688749	  -2090.73609883	     22.80891755	    -44.36281556	    369.14214711	     21.31719715	      9.12507317	    -18.60952801
      9.22000000	     38.83352929	     14.74647004	     16.28276580	   -112.94180028	    774.97041396	      6.29968431	     15.06616077	     40.49101967	     45.00000000	     40.12522245	    -17.71900640	   2788.62838507	  -3541.58240614	     28.96441454	     60.96462394	   1450.13632695	     25.63952117	     17.79306706	     11.56837255	      4.31243951	    -45.00000000	    -37.61863582	     45.00000000	    -37.50521040	  -1352.79086020	  -2090.91201475	     22.70220501	    -44.18677870	    368.89575029	     22.07926548	      9.14593382	    -18.54803720
